<?xml version="1.0" encoding="utf-8"?>
<!-- Generator: Adobe Illustrator 19.2.0, SVG Export Plug-In . SVG Version: 6.00 Build 0)  -->
<svg version="1.1" id="Layer_1" xmlns="http://www.w3.org/2000/svg" xmlns:xlink="http://www.w3.org/1999/xlink" x="0px" y="0px"
	 viewBox="0 0 14 20" style="enable-background:new 0 0 14 20;" xml:space="preserve">
<style type="text/css">
	.st0{fill:#CCCCCC;}
</style>
<path id="pin" class="st0" d="M13.1,3.7C12,1.6,9.8,0.2,7.4,0H6.5C4.1,0.2,2,1.6,0.9,3.7c-1.2,2.3-1.2,5,0,7.2l0,0.1l5.3,8.5
	c0.1,0.1,0.2,0.3,0.3,0.4h0c0.1,0,0.1,0.1,0.2,0.1h0c0.1,0,0.1,0,0.2,0l0,0c0.2,0,0.3-0.1,0.5-0.2c0.1-0.1,0.2-0.2,0.3-0.3l5.3-8.5
	l0-0.1C14.3,8.7,14.3,6,13.1,3.7z M11.4,10L7,17.2L2.5,10c-0.9-1.7-0.9-3.7,0-5.3C3.3,3.1,4.9,2,6.6,1.9h0.7
	c1.8,0.1,3.3,1.1,4.1,2.7C12.3,6.3,12.3,8.3,11.4,10L11.4,10z M7,10.8c-2,0.1-3.6-1.5-3.7-3.4c-0.1-2,1.5-3.6,3.4-3.7
	c2-0.1,3.6,1.5,3.7,3.4c0,0,0,0.1,0,0.1C10.5,9.1,8.9,10.7,7,10.8C7,10.8,7,10.8,7,10.8L7,10.8z M7,5.6c-0.9,0-1.6,0.7-1.7,1.6
	S6,8.8,6.9,8.8s1.6-0.7,1.7-1.6c0,0,0,0,0-0.1C8.6,6.3,7.9,5.6,7,5.6C7,5.6,7,5.6,7,5.6L7,5.6z"/>
</svg>
