<svg xmlns="http://www.w3.org/2000/svg" xmlns:xlink="http://www.w3.org/1999/xlink" preserveAspectRatio="xMidYMid" width="33" height="40" viewBox="0 0 33 40">
  <defs>
    <style>
      .cls-1 {
        fill: #10cea1;
        fill-rule: evenodd;
      }
    </style>
  </defs>
  <path d="M10.120,0.000 C7.667,0.000 5.589,1.725 5.005,4.028 C2.210,4.282 -0.001,6.669 -0.001,9.556 C-0.001,12.610 2.475,15.111 5.499,15.111 L14.821,15.111 C16.388,15.111 17.601,16.334 17.601,17.917 L17.601,19.111 L14.079,19.111 C14.035,19.109 13.989,19.109 13.942,19.111 C13.212,19.149 12.652,19.777 12.691,20.514 C12.730,21.250 13.350,21.816 14.079,21.778 L14.079,21.778 L14.519,21.778 L14.519,35.541 C14.519,37.981 16.505,40.000 18.921,40.000 C21.335,40.000 23.320,37.981 23.320,35.541 L23.320,21.778 L23.759,21.778 C24.489,21.788 25.088,21.200 25.100,20.463 C25.109,19.727 24.526,19.121 23.798,19.111 C23.784,19.111 23.773,19.111 23.759,19.111 L20.241,19.111 L20.241,17.917 C20.241,14.904 17.805,12.444 14.821,12.444 L5.499,12.444 C3.892,12.444 2.639,11.179 2.639,9.556 C2.639,8.100 3.652,6.948 5.018,6.722 C5.627,8.990 7.690,10.667 10.120,10.667 L27.720,10.667 C30.623,10.667 32.999,8.265 32.999,5.333 C32.999,2.402 30.623,0.000 27.720,0.000 L10.120,0.000 ZM10.120,2.667 L27.720,2.667 C29.205,2.667 30.360,3.833 30.360,5.333 C30.360,6.834 29.205,8.000 27.720,8.000 L10.120,8.000 C8.635,8.000 7.480,6.834 7.480,5.333 C7.480,3.833 8.635,2.667 10.120,2.667 ZM17.160,21.778 L20.680,21.778 L20.680,35.541 C20.680,36.551 19.917,37.333 18.921,37.333 C17.923,37.333 17.160,36.551 17.160,35.541 L17.160,21.778 L17.160,21.778 Z" class="cls-1"/>
</svg>
