<svg xmlns="http://www.w3.org/2000/svg" xmlns:xlink="http://www.w3.org/1999/xlink" preserveAspectRatio="xMidYMid" width="72" height="40" viewBox="0 0 72 40">
  <defs>
    <style>
      .cls-1 {
        fill: #a5a5a5;
        fill-rule: evenodd;
      }
    </style>
  </defs>
  <path d="M64.935,34.682 L64.768,34.682 L64.768,39.927 L60.773,39.927 L59.106,34.682 L28.887,34.682 L27.222,40.012 L23.309,40.012 L23.309,34.682 L23.059,34.682 L16.065,34.682 L16.065,21.318 C16.065,19.541 17.483,18.103 19.230,18.103 L21.977,18.103 L21.977,15.058 C21.977,13.282 23.392,11.844 25.140,11.844 L41.958,11.844 C42.790,11.844 43.456,12.097 44.039,12.605 C44.621,12.182 45.288,11.844 46.120,11.844 L62.938,11.844 C64.685,11.844 66.100,13.282 66.100,15.058 L66.100,18.103 L68.930,18.103 C70.679,18.103 72.094,19.541 72.013,21.318 L72.013,34.682 L64.935,34.682 ZM23.309,21.318 C23.309,20.726 22.810,20.302 22.309,20.302 L19.230,20.302 C18.646,20.302 18.231,20.726 18.231,21.318 L18.231,32.483 L23.059,32.483 L23.309,32.483 L23.309,21.318 ZM62.354,37.728 L62.686,37.728 L62.686,34.682 L61.356,34.682 L62.354,37.728 ZM25.473,37.812 L25.723,37.812 L26.723,34.767 L25.473,34.767 L25.473,37.812 ZM42.957,22.925 L42.957,15.058 C42.957,14.466 42.540,14.043 41.958,14.043 L25.140,14.043 C24.559,14.043 24.142,14.466 24.142,15.058 L24.142,18.696 C24.974,19.287 25.473,20.302 25.473,21.318 L25.473,26.308 L42.957,26.308 L42.957,22.925 ZM25.473,28.507 L25.473,32.483 L58.440,32.483 L62.686,32.483 L62.686,28.507 L25.473,28.507 ZM63.936,15.058 C63.936,14.466 63.520,14.043 62.938,14.043 L46.120,14.043 C45.537,14.043 45.122,14.466 45.122,15.058 L45.122,22.925 L45.122,26.308 L62.686,26.308 L62.686,21.318 C62.686,20.302 63.186,19.372 63.936,18.780 L63.936,15.058 ZM69.930,21.318 C69.930,20.726 69.514,20.302 68.930,20.302 L65.851,20.302 C65.267,20.302 64.850,20.726 64.850,21.318 L64.850,32.483 L65.019,32.483 L69.930,32.483 L69.930,21.318 ZM10.905,37.812 L14.983,37.812 L14.983,40.012 L4.660,40.012 L4.660,37.812 L8.740,37.812 L8.740,11.844 L-0.001,11.844 L3.745,0.001 L15.732,0.001 L19.647,11.844 L10.905,11.844 L10.905,37.812 ZM16.649,9.645 L14.235,2.200 L5.242,2.200 L2.913,9.645 L16.649,9.645 Z" class="cls-1"/>
</svg>
