<svg xmlns="http://www.w3.org/2000/svg" xmlns:xlink="http://www.w3.org/1999/xlink" preserveAspectRatio="xMidYMid" width="42" height="40" viewBox="0 0 42 40">
  <defs>
    <style>
      .cls-1 {
        fill: #a5a5a5;
        fill-rule: evenodd;
      }
    </style>
  </defs>
  <path d="M40.828,15.612 L39.024,15.612 C38.924,15.299 38.799,14.992 38.644,14.702 C38.297,14.043 37.839,13.477 37.291,13.027 C36.755,12.579 36.146,12.253 35.483,12.057 C34.824,11.865 34.144,11.814 33.463,11.906 C32.754,12.001 32.083,12.247 31.480,12.631 C31.172,12.824 30.883,13.051 30.623,13.305 C30.369,13.549 30.138,13.823 29.937,14.114 C29.834,14.259 29.742,14.412 29.660,14.558 C29.570,14.713 29.490,14.875 29.417,15.038 C29.341,15.203 29.275,15.376 29.219,15.551 C29.210,15.571 29.210,15.591 29.205,15.612 L27.449,15.612 C26.801,15.612 26.277,16.147 26.277,16.808 L26.277,19.754 C26.277,25.021 28.341,28.332 30.851,29.560 C30.845,29.600 30.839,29.639 30.839,29.680 C30.839,31.097 31.703,32.310 32.923,32.804 C32.572,35.510 30.300,37.608 27.552,37.608 C24.564,37.608 22.131,35.127 22.131,32.077 L22.131,7.266 C24.865,6.910 26.500,5.219 26.849,2.389 L37.089,2.389 C37.738,2.389 38.261,1.854 38.261,1.194 C38.261,0.534 37.738,-0.001 37.089,-0.001 L4.996,-0.001 C4.348,-0.001 3.823,0.534 3.823,1.194 C3.823,1.854 4.348,2.389 4.996,2.389 L15.148,2.389 C15.493,5.193 17.101,6.880 19.788,7.257 L19.788,31.666 C19.740,31.795 19.712,31.932 19.712,32.077 C19.712,35.128 17.278,37.610 14.290,37.610 C11.559,37.610 9.302,35.539 8.928,32.859 C10.223,32.405 11.158,31.152 11.158,29.680 C11.158,29.639 11.149,29.601 11.146,29.560 C13.654,28.332 15.720,25.022 15.720,19.754 L15.720,16.808 C15.720,16.147 15.195,15.612 14.549,15.612 L12.746,15.612 C12.642,15.295 12.518,14.987 12.368,14.701 C12.016,14.040 11.559,13.475 11.014,13.027 C10.473,12.578 9.865,12.252 9.204,12.058 C8.546,11.865 7.866,11.813 7.184,11.906 C6.476,12.001 5.806,12.247 5.204,12.630 C4.897,12.822 4.605,13.050 4.345,13.305 C4.083,13.557 3.849,13.834 3.658,14.117 C3.555,14.261 3.463,14.413 3.376,14.567 C3.287,14.723 3.204,14.887 3.131,15.058 C3.064,15.212 2.998,15.374 2.943,15.535 C2.933,15.560 2.931,15.586 2.925,15.612 L1.172,15.612 C0.522,15.612 -0.001,16.147 -0.001,16.807 L-0.001,19.753 C-0.001,25.021 2.064,28.333 4.574,29.560 C4.568,29.600 4.562,29.638 4.562,29.679 C4.562,31.063 5.385,32.253 6.558,32.769 C6.904,36.814 10.238,40.000 14.290,40.000 C17.099,40.000 19.558,38.463 20.921,36.177 C22.284,38.463 24.742,39.998 27.552,39.998 C31.586,39.998 34.909,36.845 35.285,32.830 C36.537,32.354 37.437,31.123 37.437,29.679 C37.437,29.638 37.428,29.600 37.425,29.560 C39.932,28.333 41.998,25.021 41.998,19.753 L41.998,16.807 C41.998,16.147 41.474,15.612 40.828,15.612 ZM7.007,30.107 L8.712,30.107 C8.557,30.429 8.234,30.653 7.859,30.653 C7.485,30.653 7.163,30.429 7.007,30.107 ZM5.572,15.492 C5.681,15.332 5.811,15.180 5.958,15.037 C6.103,14.897 6.259,14.774 6.436,14.663 C6.761,14.456 7.115,14.325 7.489,14.275 C7.851,14.227 8.209,14.254 8.553,14.355 C8.909,14.460 9.240,14.637 9.538,14.885 C9.779,15.083 9.980,15.334 10.156,15.612 L5.498,15.612 C5.523,15.571 5.544,15.533 5.572,15.492 ZM2.343,19.753 L2.343,18.002 L13.376,18.002 L13.376,19.753 C13.376,25.554 10.624,27.716 8.890,27.716 L6.829,27.716 C5.094,27.716 2.343,25.554 2.343,19.753 ZM17.506,2.389 L24.489,2.389 C24.191,4.190 23.120,4.951 20.999,4.951 C18.875,4.951 17.804,4.190 17.506,2.389 ZM31.845,15.499 C31.964,15.331 32.092,15.176 32.237,15.036 C32.381,14.897 32.539,14.772 32.715,14.663 C33.037,14.455 33.393,14.326 33.768,14.275 C34.129,14.226 34.488,14.253 34.833,14.355 C35.189,14.460 35.518,14.636 35.816,14.883 C36.058,15.083 36.257,15.334 36.433,15.612 L31.776,15.612 C31.800,15.573 31.820,15.536 31.845,15.499 ZM34.138,30.653 C33.762,30.653 33.439,30.429 33.284,30.107 L34.991,30.107 C34.836,30.429 34.513,30.653 34.138,30.653 ZM39.655,19.753 C39.655,25.554 36.905,27.716 35.170,27.716 L33.108,27.716 C31.371,27.716 28.620,25.554 28.620,19.753 L28.620,18.002 L39.655,18.002 L39.655,19.753 Z" class="cls-1"/>
</svg>
