<svg xmlns="http://www.w3.org/2000/svg" xmlns:xlink="http://www.w3.org/1999/xlink" preserveAspectRatio="xMidYMid" width="42.94" height="35.94" viewBox="0 0 42.94 35.94">
  <defs>
    <style>
      .cls-1 {
        fill: #a5a5a5;
        stroke: #a5a5a5;
        stroke-width: 1px;
        fill-rule: evenodd;
      }
    </style>
  </defs>
  <path d="M42.071,7.987 L35.620,7.987 L34.598,10.032 C34.149,10.926 33.251,11.482 32.252,11.482 L28.230,11.482 L25.274,12.465 C23.755,12.972 22.174,13.229 20.576,13.229 L17.474,13.229 L17.330,14.158 C17.480,14.109 17.643,14.085 17.811,14.129 C18.279,14.246 18.563,14.719 18.446,15.187 L17.573,18.681 C17.474,19.080 17.120,19.343 16.727,19.343 C16.663,19.343 16.601,19.335 16.536,19.323 L15.943,23.177 L21.428,25.527 C21.450,25.535 21.468,25.553 21.490,25.565 C21.565,25.605 21.638,25.647 21.698,25.705 C21.726,25.733 21.747,25.769 21.773,25.802 C21.814,25.853 21.852,25.902 21.878,25.960 C21.899,26.000 21.908,26.042 21.918,26.085 C21.939,26.147 21.952,26.208 21.957,26.272 C21.958,26.294 21.970,26.311 21.970,26.332 L21.970,33.320 C21.970,34.765 20.793,35.941 19.347,35.941 L5.365,35.941 C3.919,35.941 2.742,34.765 2.742,33.320 L2.742,26.332 C2.742,26.260 2.767,26.197 2.782,26.131 C2.790,26.101 2.790,26.075 2.801,26.047 C2.855,25.895 2.944,25.768 3.067,25.668 C3.079,25.658 3.080,25.642 3.092,25.633 L6.302,23.225 L7.839,13.229 L3.618,13.229 C2.170,13.229 0.995,12.053 0.995,10.608 L0.995,3.620 C0.995,2.175 2.170,1.000 3.618,1.000 L20.576,1.000 C22.176,1.000 23.758,1.256 25.274,1.763 L28.230,2.747 L32.252,2.747 C33.251,2.747 34.149,3.302 34.598,4.195 L35.621,6.240 L42.071,6.240 C42.554,6.240 42.946,6.632 42.946,7.114 C42.946,7.596 42.554,7.987 42.071,7.987 ZM4.491,33.320 C4.491,33.802 4.881,34.194 5.365,34.194 L19.347,34.194 C19.831,34.194 20.223,33.802 20.223,33.320 L20.223,27.205 L4.491,27.205 L4.491,33.320 ZM7.637,24.408 L6.238,25.458 L16.838,25.458 L14.634,24.513 C14.267,24.356 14.053,23.971 14.115,23.577 L15.708,13.229 L9.611,13.229 L7.976,23.842 C7.941,24.068 7.820,24.272 7.637,24.408 ZM27.215,4.249 L24.720,3.417 C23.382,2.972 21.987,2.745 20.576,2.745 L3.618,2.745 L3.618,2.747 C3.134,2.747 2.742,3.138 2.742,3.620 L2.742,10.608 C2.742,11.090 3.134,11.482 3.618,11.482 L8.858,11.482 L16.725,11.482 L20.576,11.482 C21.987,11.482 23.382,11.257 24.720,10.809 L27.215,9.979 L27.215,4.249 ZM33.032,4.976 C32.885,4.679 32.585,4.493 32.252,4.493 L28.964,4.493 L28.964,9.735 L32.252,9.735 C32.585,9.735 32.885,9.550 33.032,9.253 L34.103,7.114 L33.032,4.976 ZM10.607,9.735 L5.365,9.735 C4.881,9.735 4.491,9.343 4.491,8.861 C4.491,8.379 4.881,7.987 5.365,7.987 L10.607,7.987 C11.091,7.987 11.483,8.379 11.483,8.861 C11.483,9.343 11.091,9.735 10.607,9.735 ZM10.607,6.240 L5.365,6.240 C4.881,6.240 4.491,5.849 4.491,5.367 C4.491,4.885 4.881,4.493 5.365,4.493 L10.607,4.493 C11.091,4.493 11.483,4.885 11.483,5.367 C11.483,5.849 11.091,6.240 10.607,6.240 Z" class="cls-1"/>
</svg>
